# xmcd
#
# Track frame offsets:
#	150
#	15386
#	30326
#	41977
#	54992
#	71770
#	92178
#	104664
#	125863
#	146592
#	166986
#	185841
#
# Disc length: 2655 seconds
#
# Revision: 1
# Processed by: cddbd v1.5.2PL0 Copyright (c) Steve Scherf et al.
# Submitted via: audiograbber 1.83.01
#
DISCID=ae0a5d0c
DTITLE=Danny Marks - A Friend In The Blues
DYEAR=1900
DGENRE=Retro
TTITLE0=Caretaker
TTITLE1=Blues For Lonnie Johnson
TTITLE2=Blues Party Tonight
TTITLE3=Uncle John
TTITLE4=Back To The Blues
TTITLE5=Two Brothers
TTITLE6=A Friend In The Blues
TTITLE7=The Other Side
TTITLE8=That Lonesome Valley
TTITLE9=Blues Of The Future
TTITLE10=Mixed Up Girl
TTITLE11=Maybe Tomorrow
EXTD=
EXTT0=
EXTT1=
EXTT2=
EXTT3=
EXTT4=
EXTT5=
EXTT6=
EXTT7=
EXTT8=
EXTT9=
EXTT10=
EXTT11=
PLAYORDER=
